<svg width="43" height="40">
<path fill-rule='evenodd' fill="rgb(206,212,226)" 
d="m43.1 15.8c0 3.2-2.3 5.8-5.2 6.2v7.1c0 0.8-0.4 1.5-1.1 1.9q-0.5 0.3-1.1 0.3q-0.5 0-1-0.3c-6-3.4-12.4-5.5-19.2-6.3l4.2 11.8c0.2 0.7 0.1 1.4-0.3 2c-0.4 0.6-1 0.9-1.7 0.9h-4.9c-0.9 0-1.7-0.5-2-1.4l-4.8-13.7c-1-0.5-1.8-1.5-1.9-2.7h-1.4c-1.5 0-2.7-1.2-2.7-2.8v-6c0-1.6 1.2-2.8 2.7-2.8h1.4c0.2-1.7 1.5-3 3.2-3c0 0 6.6 0 6.7 0c7.3-0.6 14.3-2.7 20.7-6.4c0.7-0.4 1.5-0.4 2.1 0c0.7 0.4 1.1 1.1 1.1 1.9v7.1c2.9 0.4 5.2 3 5.2 6.2zm-39-3.7h-1.4c-0.3 0-0.6 0.3-0.6 0.7v6c0 0.4 0.3 0.7 0.6 0.7h1.4zm3.1 10.3c0.1 0 5.8 0 5.8 0v-13.3h-5.7c-0.6 0-1.2 0.6-1.2 1.2v10.9c0 0.5 0.3 0.9 0.7 1.1c0.2 0.1 0.2 0.1 0.4 0.1zm6 2.1h-4.9l4.5 12.7q0 0.1 0 0.1h4.9q0 0 0 0q0-0.1 0-0.1zm22.6-22q0-0.1-0.1-0.1q0 0 0 0c-6.4 3.7-13.4 5.9-20.7 6.6v13.5c7.3 0.7 14.3 2.9 20.7 6.6q0 0 0 0q0.1 0 0.1-0.1zm5.2 13.3c0-2-1.3-3.6-3.2-4v8c1.9-0.4 3.2-2 3.2-4z" /></svg>