<svg width="42" height="42">
<path fill-rule='evenodd' fill="rgb(206,212,226)"  
d="m12.9 32.7c0-1.3 0.3-2.6 0.8-3.7l-13.2-20.4c-0.2-0.4-0.2-0.9 0.1-1.2l6.3-6.4q0.3-0.2 0.7-0.2h27.3q0.4 0 0.6 0.2l6.4 6.4c0.3 0.3 0.3 0.8 0.1 1.2l-13.2 20.4c0.5 1.1 0.8 2.4 0.8 3.7c0 4.7-3.8 8.5-8.4 8.5c-4.6 0-8.3-3.8-8.3-8.5zm1.8 0c0 3.7 2.9 6.7 6.5 6.7c3.7 0 6.6-3 6.6-6.7c0-3.7-2.9-6.7-6.6-6.7c-3.6 0-6.5 3-6.5 6.7zm8.5-8.2c1.8 0.4 3.4 1.4 4.5 2.8l11.9-18.3h-6.4zm-8.4 2.9c1.1-1.4 2.7-2.5 4.5-2.9l-10-15.5h-6.4zm6.5-3.1q0 0 0 0q0 0 0 0l9.8-15.3h-19.7zm-17.8-17c0 0 6.3 0 6.3 0c0 0 23 0 23.1 0h6.3l-4.6-4.6h-26.6zm17.3 28.9v-4.9h-0.5c-0.5 0-0.9-0.4-0.9-0.9c0-0.5 0.4-0.9 0.9-0.9h1.4c0.5 0 0.9 0.4 0.9 0.9v5.8c0 0.5-0.4 0.9-0.9 0.9c-0.5 0-0.9-0.4-0.9-0.9z" /></svg>