<svg 
width="37" height="38">
<path fill-rule='evenodd' fill="rgb(206,212,226)" 
d="m2 38c-1.1 0-2-0.9-2-2v-27.3q0-0.4 0.3-0.7l7.4-7.5q0.3-0.3 0.7-0.3h19.1c1.1 0 1.9 0.9 1.9 2v2.9c0 0.5-0.4 0.9-0.9 0.9c-0.5 0-0.9-0.4-0.9-0.9v-2.9c0-0.1 0-0.1-0.1-0.1h-18.2v5.5c0 1.1-0.9 2-2 2h-5.5v26.4c0 0.1 0.1 0.1 0.2 0.1h25.5c0.1 0 0.1 0 0.1-0.1v-13.9c0-0.5 0.4-0.9 0.9-0.9c0.5 0 0.9 0.4 0.9 0.9v13.9c0 1.1-0.8 2-1.9 2zm1.1-30.2h4.2c0.1 0 0.2-0.1 0.2-0.2v-4.3zm4 23.8c-0.5 0-1-0.5-1-1c0-0.5 0.5-0.9 1-0.9h3.9l1.4-5q0-0.3 0.2-0.4h-5.5c-0.5 0-1-0.5-1-1c0-0.5 0.5-0.9 1-0.9h7.3l5.5-5.4h-12.8c-0.5 0-1-0.5-1-1c0-0.5 0.5-0.9 1-0.9h14.6l8.4-8.5c1.2-1.2 3.1-1.2 4.3 0l1.1 1.1c1.2 1.2 1.2 3.2 0 4.4l-17.5 17.6q-0.2 0.2-0.4 0.2c0 0-5.7 1.6-5.7 1.6c0 0-0.2 0.1-0.2 0.1zm5.9-2.3l2.6-0.7l-1.9-1.9zm1.6-4.5l2.8 2.9l14.5-14.6l-2.9-2.8zm16.9-17l-1.2 1.1l2.9 2.9l1.1-1.2c0.5-0.5 0.5-1.3 0-1.7l-1.1-1.1c-0.2-0.3-0.5-0.4-0.8-0.4c-0.4 0-0.7 0.1-0.9 0.4z" /></svg>