<?xml version="1.0" encoding="UTF-8"?>
<svg xmlns="http://www.w3.org/2000/svg" xmlns:xlink="http://www.w3.org/1999/xlink" width="12px" height="12px" viewBox="0 0 12 12" version="1.1">
<g id="surface1">
<path style=" stroke:none;fill-rule:nonzero;fill:rgb(56.862745%,56.862745%,56.862745%);fill-opacity:1;" d="M 4.285156 0.75 L 4.285156 1.5 L 7.714844 1.5 L 7.714844 0.75 C 7.714844 0.335938 8.097656 0 8.570312 0 C 9.046875 0 9.429688 0.335938 9.429688 0.75 L 9.429688 1.5 L 10.714844 1.5 C 11.425781 1.5 12 2.003906 12 2.625 L 12 3.75 L 0 3.75 L 0 2.625 C 0 2.003906 0.574219 1.5 1.285156 1.5 L 2.570312 1.5 L 2.570312 0.75 C 2.570312 0.335938 2.953125 0 3.429688 0 C 3.902344 0 4.285156 0.335938 4.285156 0.75 Z M 0 4.5 L 12 4.5 L 12 10.875 C 12 11.496094 11.425781 12 10.714844 12 L 1.285156 12 C 0.574219 12 0 11.496094 0 10.875 Z M 1.714844 7.125 C 1.714844 7.332031 1.90625 7.5 2.144531 7.5 L 3 7.5 C 3.234375 7.5 3.429688 7.332031 3.429688 7.125 L 3.429688 6.375 C 3.429688 6.167969 3.234375 6 3 6 L 2.144531 6 C 1.90625 6 1.714844 6.167969 1.714844 6.375 Z M 5.144531 7.125 C 5.144531 7.332031 5.335938 7.5 5.570312 7.5 L 6.429688 7.5 C 6.664062 7.5 6.855469 7.332031 6.855469 7.125 L 6.855469 6.375 C 6.855469 6.167969 6.664062 6 6.429688 6 L 5.570312 6 C 5.335938 6 5.144531 6.167969 5.144531 6.375 Z M 9 6 C 8.765625 6 8.570312 6.167969 8.570312 6.375 L 8.570312 7.125 C 8.570312 7.332031 8.765625 7.5 9 7.5 L 9.855469 7.5 C 10.089844 7.5 10.285156 7.332031 10.285156 7.125 L 10.285156 6.375 C 10.285156 6.167969 10.089844 6 9.855469 6 Z M 1.714844 10.125 C 1.714844 10.332031 1.90625 10.5 2.144531 10.5 L 3 10.5 C 3.234375 10.5 3.429688 10.332031 3.429688 10.125 L 3.429688 9.375 C 3.429688 9.167969 3.234375 9 3 9 L 2.144531 9 C 1.90625 9 1.714844 9.167969 1.714844 9.375 Z M 5.570312 9 C 5.335938 9 5.144531 9.167969 5.144531 9.375 L 5.144531 10.125 C 5.144531 10.332031 5.335938 10.5 5.570312 10.5 L 6.429688 10.5 C 6.664062 10.5 6.855469 10.332031 6.855469 10.125 L 6.855469 9.375 C 6.855469 9.167969 6.664062 9 6.429688 9 Z M 8.570312 10.125 C 8.570312 10.332031 8.765625 10.5 9 10.5 L 9.855469 10.5 C 10.089844 10.5 10.285156 10.332031 10.285156 10.125 L 10.285156 9.375 C 10.285156 9.167969 10.089844 9 9.855469 9 L 9 9 C 8.765625 9 8.570312 9.167969 8.570312 9.375 Z M 8.570312 10.125 "/>
</g>
</svg>
