<svg version="1.2" xmlns="http://www.w3.org/2000/svg" viewBox="0 0 50 39" width="50" height="39"><style>.s0{fill:#a3bbc8}</style><path fill-rule="evenodd" class="s0" d="m0.1 27.8c0.1-0.2 6.4-12.9 6.6-13.2c0.1-0.4 0.3-0.4 0.5-0.5l35.2-14c0 0 0.5-0.2 0.9 0c0.4 0.3 0.5 0.7 0.5 0.7l6.2 37c0 0 0.1 0.5-0.3 0.8c-0.4 0.4-0.9 0.3-0.9 0.3l-48-9.8c0 0-0.4-0.1-0.6-0.4c-0.3-0.3-0.2-0.7-0.1-0.9zm35.9-6l-10.3 2.2l20 11.1zm-33.3 5.1l17.9-3.7l-12.5-7zm20.5-4.3l12.4-2.5l5.6-17.6l-31.6 12.6zm19.2-17.5l-4.9 15.5l9.8 13.4zm-19.6 19.4l-17.5 3.6l38.1 7.8z" /></svg>