<svg version="1.2" xmlns="http://www.w3.org/2000/svg" viewBox="0 0 31 44" width="31" height="44">
<path fill-rule='evenodd' fill="rgb(255,255,255)" 
d="m14.6 43.8l-6.6-2.9-5.7 2.5c-0.6 0.3-1.3 0.1-1.8-0.4-0.5-0.5-0.6-1.2-0.3-1.8l5-10.5q0.1-0.4 0.5-0.5c0.5-0.3 1.2-0.1 1.4 0.4 0.2 0.4 0.2 0.8 0 1.1l-4.3 9.1 4.3-1.9c0.6-0.3 1.2-0.3 1.8 0l6.6 2.9q0 0 0 0 0 0 0 0l6.6-2.9c0.6-0.3 1.2-0.3 1.8 0l4.3 1.9-4.3-9.1c-0.2-0.5-0.2-1 0.1-1.3 0.4-0.4 1-0.5 1.5-0.2q0.2 0.2 0.3 0.5l5 10.5c0.3 0.6 0.2 1.3-0.3 1.8-0.5 0.5-1.2 0.7-1.8 0.4l-5.7-2.5-6.6 2.9q-0.4 0.2-0.9 0.2-0.5 0-0.9-0.2zm-2-7.6l-9.5-15.9q0 0 0-0.1c-1-1.9-1.6-4.2-1.6-6.4 0.1-3.6 1.5-7.1 4.1-9.7 2.6-2.6 6-4 9.7-4.1 3.8-0.1 7.3 1.4 10 4 2.7 2.6 4.2 6.1 4.2 9.9q0 3.4-1.6 6.3 0 0.1 0 0.1l-9.6 15.9c-0.6 1-1.6 1.6-2.8 1.6-1.2 0-2.2-0.6-2.9-1.6zm2.7-34c-6.3 0.1-11.5 5.3-11.6 11.6q0 2.9 1.3 5.4l9.5 15.9c0.3 0.5 0.8 0.5 1 0.5 0.2 0 0.7 0 1-0.5l9.5-15.9q1.3-2.5 1.3-5.3c0-3.2-1.3-6.1-3.5-8.3-2.3-2.2-5.2-3.4-8.3-3.4q-0.1 0-0.2 0zm-4.9 11.7c0-2.8 2.3-5 5.1-5 2.8 0 5.1 2.2 5.1 5 0 2.8-2.3 5-5.1 5-2.8 0-5.1-2.2-5.1-5zm2.3 0c0 1.6 1.2 2.8 2.8 2.8 1.6 0 2.8-1.2 2.8-2.8 0-1.6-1.2-2.8-2.8-2.8-1.6 0-2.8 1.2-2.8 2.8z"/></svg>