<svg version="1.2" xmlns="http://www.w3.org/2000/svg" viewBox="0 0 18 15" width="18" height="15"><style>.a{fill:#436372}</style><path class="a" d="m3 15q-0.1 0-0.2 0c-0.1-0.1-0.2-0.2-0.2-0.4v-2.1h-1.3c-0.7 0-1.3-0.5-1.3-1.2v-9.9c0-0.7 0.6-1.2 1.3-1.2h15.4c0.7 0 1.3 0.5 1.3 1.2v9.9c0 0.7-0.6 1.2-1.3 1.2h-10.9l-2.5 2.4q-0.1 0.1-0.3 0.1zm-1.7-14c-0.3 0-0.4 0.2-0.4 0.4v9.9c0 0.2 0.1 0.4 0.4 0.4h1.7c0.2 0 0.4 0.2 0.4 0.4v1.5l1.9-1.8q0.1-0.1 0.3-0.1h11.1c0.3 0 0.4-0.2 0.4-0.4v-9.9c0-0.2-0.1-0.4-0.4-0.4zm4.8 5.4c0 0.3-0.3 0.6-0.7 0.6-0.3 0-0.6-0.3-0.6-0.6 0-0.4 0.3-0.7 0.6-0.7 0.4 0 0.7 0.3 0.7 0.7zm3.6 0c0 0.3-0.3 0.6-0.7 0.6-0.3 0-0.6-0.3-0.6-0.6 0-0.4 0.3-0.7 0.6-0.7 0.4 0 0.7 0.3 0.7 0.7zm3.3 0c0 0.3-0.3 0.6-0.6 0.6-0.4 0-0.7-0.3-0.7-0.6 0-0.4 0.3-0.7 0.7-0.7 0.3 0 0.6 0.3 0.6 0.7z"/></svg>