<svg version="1.2" xmlns="http://www.w3.org/2000/svg" viewBox="0 0 18 13" width="18" height="13"><style>.a{fill:#436372}</style><path class="a" d="m16.7 13h-15.4c-0.7 0-1.3-0.6-1.3-1.2v-9.9c0-0.7 0.6-1.3 1.3-1.3h15.4c0.7 0 1.3 0.6 1.3 1.3v9.9c0 0.6-0.6 1.2-1.3 1.2zm-15.4-11.6c-0.3 0-0.4 0.2-0.4 0.5v9.9c0 0.2 0.1 0.4 0.4 0.4h15.4c0.3 0 0.4-0.2 0.4-0.4v-9.9c0-0.3-0.1-0.5-0.4-0.5zm7.7 5.6q-0.4 0-0.7-0.2l-7.8-5.2c-0.2-0.2-0.2-0.4-0.1-0.6 0.1-0.2 0.4-0.2 0.6-0.1l7.8 5.2c0.1 0.1 0.3 0.1 0.5 0l7.8-5.2c0.1-0.1 0.4-0.1 0.6 0.1 0.1 0.2 0 0.4-0.2 0.6l-7.7 5.2q-0.4 0.2-0.8 0.2zm8.3 5.8q-0.1 0-0.3-0.2l-6.6-6.3c-0.1-0.2-0.1-0.5 0-0.6 0.2-0.2 0.5-0.2 0.6 0l6.7 6.3c0.1 0.2 0.1 0.5 0 0.6q-0.2 0.2-0.4 0.2zm-16.6 0q-0.2 0-0.3-0.2c-0.2-0.1-0.2-0.4 0-0.6l6.6-6.3c0.2-0.2 0.5-0.2 0.6 0 0.2 0.1 0.2 0.4 0 0.6l-6.6 6.3q-0.1 0.2-0.3 0.2z"/></svg>