<svg version="1.2" xmlns="http://www.w3.org/2000/svg" viewBox="0 0 14 14" width="14" height="14"><style>.a{fill:#436372}</style><path class="a" d="m13.4 13.2h-12.9c-0.2 0-0.4-0.2-0.4-0.4 0-3.7 3.1-6.6 6.9-6.6 3.7 0 6.8 2.9 6.8 6.6 0 0.2-0.2 0.4-0.4 0.4zm-12.4-0.9h11.9c-0.2-2.9-2.8-5.3-5.9-5.3-3.2 0-5.8 2.4-6 5.3zm6-5.3c-2 0-3.7-1.6-3.7-3.5 0-1.9 1.7-3.5 3.7-3.5 2 0 3.6 1.6 3.6 3.5 0 1.9-1.6 3.5-3.6 3.5zm0-6.2c-1.6 0-2.8 1.2-2.8 2.7 0 1.5 1.2 2.7 2.8 2.7 1.5 0 2.7-1.2 2.7-2.7 0-1.5-1.2-2.7-2.7-2.7z"/></svg>