<svg version="1.2" xmlns="http://www.w3.org/2000/svg" viewBox="0 0 37 34" width="37" height="34"><style>.a{fill:#a3bbc8}</style><path fill-rule="evenodd" class="a" d="m1 33.9q-0.4 0-0.7-0.3-0.3-0.2-0.3-0.6v-20.2q0 0 0 0c0-0.3 0.1-0.6 0.4-0.8l5.3-3.6v-3.8c0-0.6 0.5-1 1-1h6l5.3-3.5c0.3-0.2 0.7-0.2 1 0l5.2 3.5h6.1c0.5 0 1 0.4 1 1v3.8l5.3 3.7q0.2 0.2 0.3 0.5c0.1 0 0.1 0.1 0.1 0.2v20.1c0 0.6-0.4 1-0.9 1h-35.1zm2.7-1.8l29.5-0.1-14.7-11.2zm-1.8-1l11.4-8.7-11.4-7.8zm21.7-8.7l11.4 8.7v-16.6zm-16-6.1l7.3 4.9 3-2.2c0.4-0.3 0.8-0.3 1.2 0q0 0 0 0l3 2.2 7.3-5v-10.6h-21.8zm-5-3.4l3.1 2.1v-4.2zm28.7 2l3-2-3-2.1zm-15.2-11.2h4.8l-2.4-1.7zm-4 12.3c-0.5 0-0.9-0.4-0.9-0.9 0-0.5 0.4-0.9 0.9-0.9h12.8c0.6 0 1 0.4 1 0.9 0 0.5-0.4 0.9-1 0.9zm0-4.8c-0.5 0-0.9-0.4-0.9-1 0-0.5 0.4-0.9 0.9-0.9h12.9c0.5 0 0.9 0.4 0.9 0.9 0 0.6-0.4 1-0.9 1z"/></svg>