<svg version="1.2" xmlns="http://www.w3.org/2000/svg" viewBox="0 0 37 44" width="37" height="44"><style>.a{fill:#a3bbc8}</style><path fill-rule="evenodd" class="a" d="m13.4 38.9c0-2.7 2.3-5 5.1-5 2.8 0 5.1 2.3 5.1 5 0 2.8-2.3 5-5.1 5-2.8 0-5.1-2.2-5.1-5zm2 0c0 1.7 1.4 3.1 3.1 3.1 1.7 0 3.1-1.4 3.1-3.1 0-1.7-1.4-3-3.1-3-1.7 0-3.1 1.3-3.1 3zm11.5-11.3c0-2.8 2.3-5 5-5 2.8 0 5.1 2.2 5.1 5 0 2.7-2.3 5-5.1 5-2.7 0-5-2.3-5-5zm2 0c0 1.7 1.3 3 3 3 1.7 0 3.1-1.3 3.1-3 0-1.7-1.4-3.1-3.1-3.1-1.7 0-3 1.4-3 3.1zm-15.5 0c0-2.8 2.3-5 5.1-5 2.8 0 5.1 2.2 5.1 5 0 2.7-2.3 5-5.1 5-2.8 0-5.1-2.3-5.1-5zm2 0c0 1.7 1.4 3 3.1 3 1.7 0 3.1-1.3 3.1-3 0-1.7-1.4-3.1-3.1-3.1-1.7 0-3.1 1.4-3.1 3.1zm-15.4 0c0-2.8 2.3-5 5.1-5 2.7 0 5 2.2 5 5 0 2.7-2.3 5-5 5-2.8 0-5.1-2.3-5.1-5zm2 0c0 1.7 1.4 3 3.1 3 1.7 0 3-1.3 3-3 0-1.7-1.3-3.1-3-3.1-1.7 0-3.1 1.4-3.1 3.1zm24.9-11.4c0-2.7 2.3-4.9 5-4.9 2.8 0 5.1 2.2 5.1 4.9 0 2.8-2.3 5-5.1 5-2.7 0-5-2.2-5-5zm2 0c0 1.7 1.3 3.1 3 3.1 1.7 0 3.1-1.4 3.1-3.1 0-1.6-1.4-3-3.1-3-1.7 0-3 1.4-3 3zm-15.5 0c0-2.7 2.3-4.9 5.1-4.9 2.8 0 5.1 2.2 5.1 4.9 0 2.8-2.3 5-5.1 5-2.8 0-5.1-2.2-5.1-5zm2 0c0 1.7 1.4 3.1 3.1 3.1 1.7 0 3.1-1.4 3.1-3.1 0-1.6-1.4-3-3.1-3-1.7 0-3.1 1.4-3.1 3zm-15.4 0c0-2.7 2.3-4.9 5.1-4.9 2.7 0 5 2.2 5 4.9 0 2.8-2.3 5-5 5-2.8 0-5.1-2.2-5.1-5zm2 0c0 1.7 1.4 3.1 3.1 3.1 1.7 0 3-1.4 3-3.1 0-1.6-1.3-3-3-3-1.7 0-3.1 1.4-3.1 3zm24.9-11.3c0-2.7 2.3-5 5-5 2.8 0 5.1 2.3 5.1 5 0 2.8-2.3 5-5.1 5-2.7 0-5-2.2-5-5zm2 0c0 1.7 1.3 3.1 3 3.1 1.7 0 3.1-1.4 3.1-3.1 0-1.7-1.4-3-3.1-3-1.7 0-3 1.3-3 3zm-15.5 0c0-2.7 2.3-5 5.1-5 2.8 0 5.1 2.3 5.1 5 0 2.8-2.3 5-5.1 5-2.8 0-5.1-2.2-5.1-5zm2 0c0 1.7 1.4 3.1 3.1 3.1 1.7 0 3.1-1.4 3.1-3.1 0-1.7-1.4-3-3.1-3-1.7 0-3.1 1.3-3.1 3zm-15.4 0c0-2.7 2.3-5 5.1-5 2.7 0 5 2.3 5 5 0 2.8-2.3 5-5 5-2.8 0-5.1-2.2-5.1-5zm2 0c0 1.7 1.4 3.1 3.1 3.1 1.7 0 3-1.4 3-3.1 0-1.7-1.3-3-3-3-1.7 0-3.1 1.3-3.1 3z"/></svg>