<svg version="1.2" xmlns="http://www.w3.org/2000/svg" viewBox="0 0 18 17" width="18" height="17"><style>.s0{fill:#243f4d}</style><path class="s0" d="m8.9 16.2q-0.1 0-0.3 0c-0.3-0.2-8.6-3.8-8.6-10.8c0.1-2.6 2.2-4.7 4.8-4.7c1.7 0 3.3 0.9 4.1 2.3c0.9-1.4 2.4-2.3 4.1-2.3c2.6 0 4.8 2.1 4.8 4.7c0 7-8.3 10.6-8.6 10.8q-0.1 0-0.3 0zm-4.1-14.1c-1.8 0-3.3 1.5-3.4 3.4c0 5.4 6.1 8.6 7.5 9.3c1.4-0.7 7.5-3.9 7.5-9.4c0-1.8-1.5-3.3-3.4-3.3c-1.8 0-3.3 1.5-3.4 3.4c0 0.3-0.3 0.6-0.7 0.6c-0.4 0-0.7-0.3-0.7-0.6c-0.1-1.9-1.6-3.4-3.4-3.4z" /></svg>